<svg xmlns="http://www.w3.org/2000/svg" xmlns:xlink="http://www.w3.org/1999/xlink" width="240.859" height="81.212" viewBox="0 0 240.859 81.212">
  <defs>
    <clipPath id="clip-path">
      <rect width="240.859" height="81.212" fill="none"/>
    </clipPath>
    <filter id="Path_167" x="154.062" y="5.601" width="59.881" height="60.778" filterUnits="userSpaceOnUse">
      <feOffset input="SourceAlpha"/>
      <feGaussianBlur stdDeviation="1.5" result="blur"/>
      <feFlood flood-color="#fff"/>
      <feComposite operator="in" in2="blur"/>
      <feComposite in="SourceGraphic"/>
    </filter>
    <filter id="Path_168" x="118.653" y="25.529" width="41.983" height="47.632" filterUnits="userSpaceOnUse">
      <feOffset input="SourceAlpha"/>
      <feGaussianBlur stdDeviation="1.5" result="blur-2"/>
      <feFlood flood-color="#fff"/>
      <feComposite operator="in" in2="blur-2"/>
      <feComposite in="SourceGraphic"/>
    </filter>
    <filter id="Path_169" x="216.061" y="11.44" width="24.798" height="27.207" filterUnits="userSpaceOnUse">
      <feOffset input="SourceAlpha"/>
      <feGaussianBlur stdDeviation="1.5" result="blur-3"/>
      <feFlood flood-color="#fff"/>
      <feComposite operator="in" in2="blur-3"/>
      <feComposite in="SourceGraphic"/>
    </filter>
    <filter id="Path_170" x="0.327" y="51.645" width="24.797" height="27.207" filterUnits="userSpaceOnUse">
      <feOffset input="SourceAlpha"/>
      <feGaussianBlur stdDeviation="1.5" result="blur-4"/>
      <feFlood flood-color="#fff"/>
      <feComposite operator="in" in2="blur-4"/>
      <feComposite in="SourceGraphic"/>
    </filter>
    <filter id="Path_171" x="6.755" y="4.124" width="24.797" height="52.26" filterUnits="userSpaceOnUse">
      <feOffset input="SourceAlpha"/>
      <feGaussianBlur stdDeviation="1.5" result="blur-5"/>
      <feFlood flood-color="#fff"/>
      <feComposite operator="in" in2="blur-5"/>
      <feComposite in="SourceGraphic"/>
    </filter>
    <filter id="Path_172" x="21.582" y="19.043" width="52.899" height="60.604" filterUnits="userSpaceOnUse">
      <feOffset input="SourceAlpha"/>
      <feGaussianBlur stdDeviation="1.5" result="blur-6"/>
      <feFlood flood-color="#fff"/>
      <feComposite operator="in" in2="blur-6"/>
      <feComposite in="SourceGraphic"/>
    </filter>
    <filter id="Line_27" x="92.119" y="6.301" width="10.5" height="74.912" filterUnits="userSpaceOnUse">
      <feOffset input="SourceAlpha"/>
      <feGaussianBlur stdDeviation="1.5" result="blur-7"/>
      <feFlood flood-color="#fff"/>
      <feComposite operator="in" in2="blur-7"/>
      <feComposite in="SourceGraphic"/>
    </filter>
    <filter id="Line_28" x="74.895" y="23.836" width="10.5" height="47.114" filterUnits="userSpaceOnUse">
      <feOffset input="SourceAlpha"/>
      <feGaussianBlur stdDeviation="1.5" result="blur-8"/>
      <feFlood flood-color="#fff"/>
      <feComposite operator="in" in2="blur-8"/>
      <feComposite in="SourceGraphic"/>
    </filter>
    <filter id="Line_29" x="207.694" y="4.515" width="10.5" height="68.383" filterUnits="userSpaceOnUse">
      <feOffset input="SourceAlpha"/>
      <feGaussianBlur stdDeviation="1.5" result="blur-9"/>
      <feFlood flood-color="#fff"/>
      <feComposite operator="in" in2="blur-9"/>
      <feComposite in="SourceGraphic"/>
    </filter>
    <filter id="Line_30" x="103.119" y="44.324" width="10.5" height="23.205" filterUnits="userSpaceOnUse">
      <feOffset input="SourceAlpha"/>
      <feGaussianBlur stdDeviation="1.5" result="blur-10"/>
      <feFlood flood-color="#fff"/>
      <feComposite operator="in" in2="blur-10"/>
      <feComposite in="SourceGraphic"/>
    </filter>
    <filter id="Line_31" x="0" y="30.74" width="10.5" height="28.11" filterUnits="userSpaceOnUse">
      <feOffset input="SourceAlpha"/>
      <feGaussianBlur stdDeviation="1.5" result="blur-11"/>
      <feFlood flood-color="#fff"/>
      <feComposite operator="in" in2="blur-11"/>
      <feComposite in="SourceGraphic"/>
    </filter>
    <filter id="Line_32" x="86.692" y="35.915" width="10.5" height="22.547" filterUnits="userSpaceOnUse">
      <feOffset input="SourceAlpha"/>
      <feGaussianBlur stdDeviation="1.5" result="blur-12"/>
      <feFlood flood-color="#fff"/>
      <feComposite operator="in" in2="blur-12"/>
      <feComposite in="SourceGraphic"/>
    </filter>
    <filter id="Line_33" x="59.263" y="0" width="10.5" height="32.337" filterUnits="userSpaceOnUse">
      <feOffset input="SourceAlpha"/>
      <feGaussianBlur stdDeviation="1.5" result="blur-13"/>
      <feFlood flood-color="#fff"/>
      <feComposite operator="in" in2="blur-13"/>
      <feComposite in="SourceGraphic"/>
    </filter>
    <filter id="Line_34" x="215.452" y="47.875" width="10.5" height="28.807" filterUnits="userSpaceOnUse">
      <feOffset input="SourceAlpha"/>
      <feGaussianBlur stdDeviation="1.5" result="blur-14"/>
      <feFlood flood-color="#fff"/>
      <feComposite operator="in" in2="blur-14"/>
      <feComposite in="SourceGraphic"/>
    </filter>
    <filter id="Line_35" x="172.871" y="3.29" width="10.5" height="52.344" filterUnits="userSpaceOnUse">
      <feOffset input="SourceAlpha"/>
      <feGaussianBlur stdDeviation="1.5" result="blur-15"/>
      <feFlood flood-color="#fff"/>
      <feComposite operator="in" in2="blur-15"/>
      <feComposite in="SourceGraphic"/>
    </filter>
    <clipPath id="clip-path-2">
      <rect id="Rectangle_227" data-name="Rectangle 227" width="24.804" height="33.044" transform="translate(4588.077 7467.718) rotate(180)" fill="none"/>
    </clipPath>
    <filter id="Path_173" x="100.204" y="-9.352" width="31.988" height="43.581" filterUnits="userSpaceOnUse">
      <feOffset input="SourceAlpha"/>
      <feGaussianBlur stdDeviation="1.5" result="blur-16"/>
      <feFlood flood-color="#fff"/>
      <feComposite operator="in" in2="blur-16"/>
      <feComposite in="SourceGraphic"/>
    </filter>
  </defs>
  <g id="Component_1_1" data-name="Component 1 – 1" clip-path="url(#clip-path)">
    <g transform="matrix(1, 0, 0, 1, 0, 0)" filter="url(#Path_167)">
      <g id="Path_167-2" data-name="Path 167" transform="translate(-4459.8 -7431.73)" fill="none" stroke-miterlimit="10">
        <path d="M4643.286,7443.543l-23.21,23.209a.73.73,0,0,0,.516,1.246h10.964a.73.73,0,0,1,.73.73v22.649a.73.73,0,0,0,.73.73h21.572a.73.73,0,0,0,.73-.73v-22.649a.73.73,0,0,1,.73-.73h10.963a.73.73,0,0,0,.517-1.246l-23.21-23.209A.729.729,0,0,0,4643.286,7443.543Z" stroke="none"/>
        <path d="M 4643.8017578125 7443.3291015625 C 4643.615234375 7443.3291015625 4643.42822265625 7443.400390625 4643.2861328125 7443.54296875 L 4620.076171875 7466.751953125 C 4619.6162109375 7467.2119140625 4619.94189453125 7467.998046875 4620.591796875 7467.998046875 L 4631.55615234375 7467.998046875 C 4631.958984375 7467.998046875 4632.2861328125 7468.3251953125 4632.2861328125 7468.72802734375 L 4632.2861328125 7491.376953125 C 4632.2861328125 7491.77978515625 4632.61279296875 7492.10693359375 4633.01611328125 7492.10693359375 L 4654.587890625 7492.10693359375 C 4654.9912109375 7492.10693359375 4655.31787109375 7491.77978515625 4655.31787109375 7491.376953125 L 4655.31787109375 7468.72802734375 C 4655.31787109375 7468.3251953125 4655.64501953125 7467.998046875 4656.0478515625 7467.998046875 L 4667.01123046875 7467.998046875 C 4667.662109375 7467.998046875 4667.98681640625 7467.2119140625 4667.52783203125 7466.751953125 L 4644.31787109375 7443.54296875 C 4644.17578125 7443.400390625 4643.98876953125 7443.3291015625 4643.8017578125 7443.3291015625 M 4643.8017578125 7441.8291015625 C 4644.39794921875 7441.8291015625 4644.95849609375 7442.0615234375 4645.37939453125 7442.4833984375 L 4668.58837890625 7465.69140625 C 4669.22900390625 7466.3330078125 4669.41796875 7467.287109375 4669.07080078125 7468.12255859375 C 4668.724609375 7468.9580078125 4667.916015625 7469.498046875 4667.01123046875 7469.498046875 L 4656.81787109375 7469.498046875 L 4656.81787109375 7491.376953125 C 4656.81787109375 7492.6064453125 4655.8173828125 7493.60693359375 4654.587890625 7493.60693359375 L 4633.01611328125 7493.60693359375 C 4631.78662109375 7493.60693359375 4630.7861328125 7492.6064453125 4630.7861328125 7491.376953125 L 4630.7861328125 7469.498046875 L 4620.591796875 7469.498046875 C 4619.68701171875 7469.498046875 4618.87841796875 7468.9580078125 4618.5322265625 7468.12158203125 C 4618.185546875 7467.28515625 4618.37548828125 7466.33154296875 4619.015625 7465.69140625 L 4642.2255859375 7442.482421875 C 4642.6455078125 7442.0615234375 4643.2060546875 7441.8291015625 4643.8017578125 7441.8291015625 Z" stroke="none" fill="#fff"/>
      </g>
    </g>
    <g transform="matrix(1, 0, 0, 1, 0, 0)" filter="url(#Path_168)">
      <g id="Path_168-2" data-name="Path 168" transform="translate(-4459.8 -7431.73)" fill="none" stroke-miterlimit="10">
        <path d="M4599.12,7463.391l-14.533,14.534a.457.457,0,0,0,.323.78h6.865a.457.457,0,0,1,.457.457v19.27a.457.457,0,0,0,.458.457H4606.2a.457.457,0,0,0,.457-.457v-19.27a.458.458,0,0,1,.457-.457h6.866a.457.457,0,0,0,.323-.78l-14.534-14.534A.458.458,0,0,0,4599.12,7463.391Z" stroke="none"/>
        <path d="M 4599.443359375 7463.25732421875 C 4599.326171875 7463.25732421875 4599.20947265625 7463.3017578125 4599.1201171875 7463.39111328125 L 4584.5869140625 7477.9248046875 C 4584.298828125 7478.212890625 4584.5029296875 7478.705078125 4584.91015625 7478.705078125 L 4591.77490234375 7478.705078125 C 4592.02783203125 7478.705078125 4592.23193359375 7478.91015625 4592.23193359375 7479.162109375 L 4592.23193359375 7498.43212890625 C 4592.23193359375 7498.68505859375 4592.43701171875 7498.88916015625 4592.68994140625 7498.88916015625 L 4606.1982421875 7498.88916015625 C 4606.4501953125 7498.88916015625 4606.65478515625 7498.68505859375 4606.65478515625 7498.43212890625 L 4606.65478515625 7479.162109375 C 4606.65478515625 7478.91015625 4606.85986328125 7478.705078125 4607.11181640625 7478.705078125 L 4613.97802734375 7478.705078125 C 4614.384765625 7478.705078125 4614.5888671875 7478.212890625 4614.30078125 7477.9248046875 L 4599.76708984375 7463.39111328125 C 4599.67724609375 7463.3017578125 4599.560546875 7463.25732421875 4599.443359375 7463.25732421875 M 4599.443359375 7461.75732421875 C 4599.96435546875 7461.75732421875 4600.455078125 7461.9599609375 4600.82470703125 7462.32763671875 L 4615.361328125 7476.8642578125 C 4615.92333984375 7477.42578125 4616.08984375 7478.26318359375 4615.78564453125 7478.9970703125 C 4615.48193359375 7479.73095703125 4614.7724609375 7480.205078125 4613.97802734375 7480.205078125 L 4608.15478515625 7480.205078125 L 4608.15478515625 7498.43212890625 C 4608.15478515625 7499.51123046875 4607.27685546875 7500.38916015625 4606.1982421875 7500.38916015625 L 4592.68994140625 7500.38916015625 C 4591.6103515625 7500.38916015625 4590.73193359375 7499.51123046875 4590.73193359375 7498.43212890625 L 4590.73193359375 7480.205078125 L 4584.91015625 7480.205078125 C 4584.11572265625 7480.205078125 4583.40576171875 7479.73095703125 4583.10205078125 7478.9970703125 C 4582.7978515625 7478.26318359375 4582.96435546875 7477.42578125 4583.5263671875 7476.8642578125 L 4598.0595703125 7462.33056640625 C 4598.4306640625 7461.96044921875 4598.92138671875 7461.75732421875 4599.443359375 7461.75732421875 Z" stroke="none" fill="#fff"/>
      </g>
    </g>
    <g transform="matrix(1, 0, 0, 1, 0, 0)" filter="url(#Path_169)">
      <g id="Path_169-2" data-name="Path 169" transform="translate(-4459.8 -7431.73)" fill="none" stroke-miterlimit="10">
        <path d="M4688.121,7449.225l-6.2,6.2a.2.2,0,0,0,.138.333h2.93a.2.2,0,0,1,.2.195v8.224a.2.2,0,0,0,.195.195h5.766a.2.2,0,0,0,.195-.195v-8.224a.2.2,0,0,1,.2-.195h2.93a.2.2,0,0,0,.138-.333l-6.2-6.2A.2.2,0,0,0,4688.121,7449.225Z" stroke="none"/>
        <path d="M 4688.2587890625 7449.16796875 C 4688.208984375 7449.16796875 4688.15869140625 7449.18701171875 4688.12109375 7449.22509765625 L 4681.91796875 7455.42822265625 C 4681.794921875 7455.55078125 4681.8818359375 7455.76123046875 4682.05615234375 7455.76123046875 L 4684.98583984375 7455.76123046875 C 4685.09423828125 7455.76123046875 4685.18115234375 7455.84814453125 4685.18115234375 7455.9560546875 L 4685.18115234375 7464.18017578125 C 4685.18115234375 7464.287109375 4685.26904296875 7464.375 4685.3759765625 7464.375 L 4691.14208984375 7464.375 C 4691.2490234375 7464.375 4691.3369140625 7464.287109375 4691.3369140625 7464.18017578125 L 4691.3369140625 7455.9560546875 C 4691.3369140625 7455.84814453125 4691.423828125 7455.76123046875 4691.5322265625 7455.76123046875 L 4694.4619140625 7455.76123046875 C 4694.63623046875 7455.76123046875 4694.72314453125 7455.55078125 4694.60009765625 7455.42822265625 L 4688.39697265625 7449.22509765625 C 4688.35888671875 7449.18701171875 4688.30859375 7449.16796875 4688.2587890625 7449.16796875 M 4688.2587890625 7447.66796875 C 4688.7119140625 7447.66796875 4689.1376953125 7447.84423828125 4689.45751953125 7448.16455078125 L 4695.66064453125 7454.36767578125 C 4696.146484375 7454.8515625 4696.2919921875 7455.57666015625 4696.02880859375 7456.21337890625 C 4695.76611328125 7456.849609375 4695.15087890625 7457.26123046875 4694.4619140625 7457.26123046875 L 4692.8369140625 7457.26123046875 L 4692.8369140625 7464.18017578125 C 4692.8369140625 7465.11474609375 4692.07666015625 7465.875 4691.14208984375 7465.875 L 4685.3759765625 7465.875 C 4684.44140625 7465.875 4683.68115234375 7465.11474609375 4683.68115234375 7464.18017578125 L 4683.68115234375 7457.26123046875 L 4682.05615234375 7457.26123046875 C 4681.3671875 7457.26123046875 4680.751953125 7456.849609375 4680.4892578125 7456.21337890625 C 4680.22607421875 7455.57666015625 4680.37158203125 7454.8515625 4680.859375 7454.365234375 L 4687.060546875 7448.16455078125 C 4687.37744140625 7447.845703125 4687.80419921875 7447.66796875 4688.2587890625 7447.66796875 Z" stroke="none" fill="#fff"/>
      </g>
    </g>
    <g transform="matrix(1, 0, 0, 1, 0, 0)" filter="url(#Path_170)">
      <g id="Path_170-2" data-name="Path 170" transform="translate(-4459.8 -7431.73)" fill="none" stroke-miterlimit="10">
        <path d="M4472.387,7489.43l-6.2,6.2a.2.2,0,0,0,.138.333h2.93a.2.2,0,0,1,.195.2v8.224a.2.2,0,0,0,.2.2h5.765a.2.2,0,0,0,.195-.2v-8.224a.2.2,0,0,1,.2-.2h2.93a.2.2,0,0,0,.138-.333l-6.2-6.2A.2.2,0,0,0,4472.387,7489.43Z" stroke="none"/>
        <path d="M 4472.52490234375 7489.373046875 C 4472.47509765625 7489.373046875 4472.42529296875 7489.39208984375 4472.38720703125 7489.43017578125 L 4466.18408203125 7495.6328125 C 4466.06103515625 7495.755859375 4466.14794921875 7495.9658203125 4466.32177734375 7495.9658203125 L 4469.251953125 7495.9658203125 C 4469.35986328125 7495.9658203125 4469.44677734375 7496.05322265625 4469.44677734375 7496.1611328125 L 4469.44677734375 7504.384765625 C 4469.44677734375 7504.4931640625 4469.53515625 7504.580078125 4469.64208984375 7504.580078125 L 4475.4072265625 7504.580078125 C 4475.51513671875 7504.580078125 4475.60205078125 7504.4931640625 4475.60205078125 7504.384765625 L 4475.60205078125 7496.1611328125 C 4475.60205078125 7496.05322265625 4475.68994140625 7495.9658203125 4475.7978515625 7495.9658203125 L 4478.72802734375 7495.9658203125 C 4478.90087890625 7495.9658203125 4478.98779296875 7495.755859375 4478.8662109375 7495.6328125 L 4472.6630859375 7489.43017578125 C 4472.625 7489.39208984375 4472.5751953125 7489.373046875 4472.52490234375 7489.373046875 M 4472.52490234375 7487.873046875 C 4472.97802734375 7487.873046875 4473.40380859375 7488.04931640625 4473.7236328125 7488.36962890625 L 4479.9267578125 7494.572265625 L 4479.93017578125 7494.5751953125 L 4479.93310546875 7494.57861328125 C 4480.41552734375 7495.06640625 4480.55615234375 7495.791015625 4480.29150390625 7496.42431640625 C 4480.02685546875 7497.05712890625 4479.41357421875 7497.4658203125 4478.72802734375 7497.4658203125 L 4477.10205078125 7497.4658203125 L 4477.10205078125 7504.384765625 C 4477.10205078125 7505.3193359375 4476.341796875 7506.080078125 4475.4072265625 7506.080078125 L 4469.64208984375 7506.080078125 C 4468.70751953125 7506.080078125 4467.94677734375 7505.3193359375 4467.94677734375 7504.384765625 L 4467.94677734375 7497.4658203125 L 4466.32177734375 7497.4658203125 C 4465.6337890625 7497.4658203125 4465.01904296875 7497.05517578125 4464.755859375 7496.41943359375 C 4464.49267578125 7495.78369140625 4464.63671875 7495.05859375 4465.12353515625 7494.572265625 L 4471.32666015625 7488.36962890625 C 4471.6435546875 7488.05078125 4472.0703125 7487.873046875 4472.52490234375 7487.873046875 Z" stroke="none" fill="#fff"/>
      </g>
    </g>
    <g transform="matrix(1, 0, 0, 1, 0, 0)" filter="url(#Path_171)">
      <g id="Path_171-2" data-name="Path 171" transform="translate(-4459.8 -7431.73)" fill="none" stroke-miterlimit="10">
        <path d="M4478.815,7441.909l-6.2,6.2a.2.2,0,0,0,.138.333h2.93a.2.2,0,0,1,.195.2v33.277a.2.2,0,0,0,.2.195h5.765a.2.2,0,0,0,.195-.195V7448.64a.2.2,0,0,1,.2-.2h2.93a.2.2,0,0,0,.138-.333l-6.2-6.2A.2.2,0,0,0,4478.815,7441.909Z" stroke="none"/>
        <path d="M 4478.953125 7441.85205078125 C 4478.90283203125 7441.85205078125 4478.85302734375 7441.87109375 4478.81494140625 7441.9091796875 L 4472.61181640625 7448.11181640625 C 4472.490234375 7448.23486328125 4472.5771484375 7448.44482421875 4472.75 7448.44482421875 L 4475.68017578125 7448.44482421875 C 4475.7880859375 7448.44482421875 4475.875 7448.5322265625 4475.875 7448.64013671875 L 4475.875 7481.9169921875 C 4475.875 7482.02490234375 4475.962890625 7482.11181640625 4476.07080078125 7482.11181640625 L 4481.8359375 7482.11181640625 C 4481.94287109375 7482.11181640625 4482.03076171875 7482.02490234375 4482.03076171875 7481.9169921875 L 4482.03076171875 7448.64013671875 C 4482.03076171875 7448.5322265625 4482.1181640625 7448.44482421875 4482.22607421875 7448.44482421875 L 4485.15576171875 7448.44482421875 C 4485.330078125 7448.44482421875 4485.4169921875 7448.23486328125 4485.2939453125 7448.11181640625 L 4479.0908203125 7441.9091796875 C 4479.052734375 7441.87109375 4479.0029296875 7441.85205078125 4478.953125 7441.85205078125 M 4478.953125 7440.35205078125 C 4479.40771484375 7440.35205078125 4479.83447265625 7440.52978515625 4480.15478515625 7440.85205078125 L 4486.3544921875 7447.05126953125 C 4486.84130859375 7447.53759765625 4486.9853515625 7448.2626953125 4486.72216796875 7448.8984375 C 4486.458984375 7449.5341796875 4485.84423828125 7449.94482421875 4485.15576171875 7449.94482421875 L 4483.53076171875 7449.94482421875 L 4483.53076171875 7481.9169921875 C 4483.53076171875 7482.8515625 4482.7705078125 7483.61181640625 4481.8359375 7483.61181640625 L 4476.07080078125 7483.61181640625 C 4475.1357421875 7483.61181640625 4474.375 7482.8515625 4474.375 7481.9169921875 L 4474.375 7449.94482421875 L 4472.75 7449.94482421875 C 4472.064453125 7449.94482421875 4471.451171875 7449.5361328125 4471.1865234375 7448.9033203125 C 4470.921875 7448.27001953125 4471.0625 7447.54541015625 4471.544921875 7447.0576171875 L 4471.5478515625 7447.05419921875 L 4471.55126953125 7447.05126953125 L 4477.75439453125 7440.8486328125 C 4478.07421875 7440.5283203125 4478.5 7440.35205078125 4478.953125 7440.35205078125 Z" stroke="none" fill="#fff"/>
      </g>
    </g>
    <g transform="matrix(1, 0, 0, 1, 0, 0)" filter="url(#Path_172)">
      <g id="Path_172-2" data-name="Path 172" transform="translate(-4459.8 -7431.73)" fill="none" stroke-miterlimit="10">
        <path d="M4507.39,7456.954l-19.825,19.825a.623.623,0,0,0,.441,1.064h9.365a.624.624,0,0,1,.623.624v26.285a.624.624,0,0,0,.624.623h18.426a.623.623,0,0,0,.624-.623v-26.285a.623.623,0,0,1,.623-.624h9.365a.623.623,0,0,0,.441-1.064l-19.825-19.825A.622.622,0,0,0,4507.39,7456.954Z" stroke="none"/>
        <path d="M 4507.8310546875 7456.77099609375 C 4507.67138671875 7456.77099609375 4507.51171875 7456.83203125 4507.39013671875 7456.9541015625 L 4487.56494140625 7476.77880859375 C 4487.171875 7477.171875 4487.451171875 7477.8427734375 4488.005859375 7477.8427734375 L 4497.37109375 7477.8427734375 C 4497.71484375 7477.8427734375 4497.994140625 7478.1220703125 4497.994140625 7478.466796875 L 4497.994140625 7504.751953125 C 4497.994140625 7505.09619140625 4498.27392578125 7505.375 4498.6181640625 7505.375 L 4517.0439453125 7505.375 C 4517.38916015625 7505.375 4517.66796875 7505.09619140625 4517.66796875 7504.751953125 L 4517.66796875 7478.466796875 C 4517.66796875 7478.1220703125 4517.94677734375 7477.8427734375 4518.291015625 7477.8427734375 L 4527.65576171875 7477.8427734375 C 4528.2119140625 7477.8427734375 4528.490234375 7477.171875 4528.09716796875 7476.77880859375 L 4508.27197265625 7456.9541015625 C 4508.14990234375 7456.83203125 4507.990234375 7456.77099609375 4507.8310546875 7456.77099609375 M 4507.8310546875 7455.27099609375 C 4508.39794921875 7455.27099609375 4508.93115234375 7455.4921875 4509.33251953125 7455.8935546875 L 4529.15771484375 7475.71826171875 C 4529.76708984375 7476.32763671875 4529.9482421875 7477.23583984375 4529.6181640625 7478.03173828125 C 4529.28857421875 7478.828125 4528.51806640625 7479.3427734375 4527.65576171875 7479.3427734375 L 4519.16796875 7479.3427734375 L 4519.16796875 7504.751953125 C 4519.16796875 7505.92236328125 4518.21533203125 7506.875 4517.0439453125 7506.875 L 4498.6181640625 7506.875 C 4497.44677734375 7506.875 4496.494140625 7505.92236328125 4496.494140625 7504.751953125 L 4496.494140625 7479.3427734375 L 4488.005859375 7479.3427734375 C 4487.14404296875 7479.3427734375 4486.3740234375 7478.828125 4486.0439453125 7478.03173828125 C 4485.71435546875 7477.23583984375 4485.89501953125 7476.32763671875 4486.50439453125 7475.71826171875 L 4506.32958984375 7455.8935546875 C 4506.7294921875 7455.4921875 4507.26318359375 7455.27099609375 4507.8310546875 7455.27099609375 Z" stroke="none" fill="#fff"/>
      </g>
    </g>
    <g transform="matrix(1, 0, 0, 1, 0, 0)" filter="url(#Line_27)">
      <line id="Line_27-2" data-name="Line 27" y2="64.412" transform="translate(97.37 11.55)" fill="none" stroke="#fff" stroke-linecap="round" stroke-linejoin="round" stroke-width="1.5"/>
    </g>
    <g transform="matrix(1, 0, 0, 1, 0, 0)" filter="url(#Line_28)">
      <line id="Line_28-2" data-name="Line 28" y2="36.614" transform="translate(80.15 29.09)" fill="none" stroke="#fff" stroke-linecap="round" stroke-linejoin="round" stroke-width="1.5"/>
    </g>
    <g transform="matrix(1, 0, 0, 1, 0, 0)" filter="url(#Line_29)">
      <line id="Line_29-2" data-name="Line 29" y2="57.883" transform="translate(212.94 9.76)" fill="none" stroke="#fff" stroke-linecap="round" stroke-linejoin="round" stroke-width="1.5"/>
    </g>
    <g transform="matrix(1, 0, 0, 1, 0, 0)" filter="url(#Line_30)">
      <line id="Line_30-2" data-name="Line 30" y2="12.705" transform="translate(108.37 49.57)" fill="none" stroke="#fff" stroke-linecap="round" stroke-linejoin="round" stroke-width="1.5"/>
    </g>
    <g transform="matrix(1, 0, 0, 1, 0, 0)" filter="url(#Line_31)">
      <line id="Line_31-2" data-name="Line 31" y2="17.61" transform="translate(5.25 35.99)" fill="none" stroke="#fff" stroke-linecap="round" stroke-linejoin="round" stroke-width="1.5"/>
    </g>
    <g transform="matrix(1, 0, 0, 1, 0, 0)" filter="url(#Line_32)">
      <line id="Line_32-2" data-name="Line 32" y2="12.047" transform="translate(91.94 41.16)" fill="none" stroke="#fff" stroke-linecap="round" stroke-linejoin="round" stroke-width="1.5"/>
    </g>
    <g transform="matrix(1, 0, 0, 1, 0, 0)" filter="url(#Line_33)">
      <line id="Line_33-2" data-name="Line 33" y2="21.837" transform="translate(64.51 5.25)" fill="none" stroke="#fff" stroke-linecap="round" stroke-linejoin="round" stroke-width="1.5"/>
    </g>
    <g transform="matrix(1, 0, 0, 1, 0, 0)" filter="url(#Line_34)">
      <line id="Line_34-2" data-name="Line 34" y2="18.307" transform="translate(220.7 53.13)" fill="none" stroke="#fff" stroke-linecap="round" stroke-linejoin="round" stroke-width="1.5"/>
    </g>
    <g transform="matrix(1, 0, 0, 1, 0, 0)" filter="url(#Line_35)">
      <line id="Line_35-2" data-name="Line 35" y2="41.844" transform="translate(178.12 8.54)" fill="none" stroke="#fff" stroke-linecap="round" stroke-linejoin="round" stroke-width="1.5"/>
    </g>
    <g id="Group_154" data-name="Group 154" transform="translate(-4459.799 -7431.728)">
      <g id="Group_153" data-name="Group 153" clip-path="url(#clip-path-2)">
        <g transform="matrix(1, 0, 0, 1, 4459.8, 7431.73)" filter="url(#Path_173)">
          <g id="Path_173-2" data-name="Path 173" transform="translate(-4459.8 -7431.73)" fill="none" stroke-miterlimit="10">
            <path d="M4575.781,7428.465l-9.688,9.688a.3.3,0,0,0,.215.52h4.577a.306.306,0,0,1,.305.305v20.674a.3.3,0,0,0,.3.305h9a.3.3,0,0,0,.305-.305v-20.674a.3.3,0,0,1,.3-.305h4.576a.3.3,0,0,0,.216-.52l-9.689-9.688A.306.306,0,0,0,4575.781,7428.465Z" stroke="none"/>
            <path d="M 4575.99609375 7428.3759765625 C 4575.91845703125 7428.3759765625 4575.84033203125 7428.4052734375 4575.78076171875 7428.46484375 L 4566.0927734375 7438.15283203125 C 4565.90087890625 7438.34521484375 4566.037109375 7438.6728515625 4566.30810546875 7438.6728515625 L 4570.884765625 7438.6728515625 C 4571.05322265625 7438.6728515625 4571.18994140625 7438.81005859375 4571.18994140625 7438.97802734375 L 4571.18994140625 7459.65185546875 C 4571.18994140625 7459.82080078125 4571.326171875 7459.95703125 4571.494140625 7459.95703125 L 4580.4990234375 7459.95703125 C 4580.66796875 7459.95703125 4580.80419921875 7459.82080078125 4580.80419921875 7459.65185546875 L 4580.80419921875 7438.97802734375 C 4580.80419921875 7438.81005859375 4580.93994140625 7438.6728515625 4581.10888671875 7438.6728515625 L 4585.68505859375 7438.6728515625 C 4585.95703125 7438.6728515625 4586.0927734375 7438.34521484375 4585.90087890625 7438.15283203125 L 4576.2119140625 7428.46484375 C 4576.15234375 7428.4052734375 4576.07421875 7428.3759765625 4575.99609375 7428.3759765625 M 4575.99609375 7426.8759765625 C 4576.47705078125 7426.8759765625 4576.9296875 7427.0625 4577.2705078125 7427.40185546875 L 4586.96142578125 7437.09228515625 C 4587.47998046875 7437.61181640625 4587.6328125 7438.3837890625 4587.3525390625 7439.06005859375 C 4587.07177734375 7439.73583984375 4586.41748046875 7440.1728515625 4585.68505859375 7440.1728515625 L 4582.30419921875 7440.1728515625 L 4582.30419921875 7459.65185546875 C 4582.30419921875 7460.6474609375 4581.49462890625 7461.45703125 4580.4990234375 7461.45703125 L 4571.494140625 7461.45703125 C 4570.49951171875 7461.45703125 4569.68994140625 7460.6474609375 4569.68994140625 7459.65185546875 L 4569.68994140625 7440.1728515625 L 4566.30810546875 7440.1728515625 C 4565.576171875 7440.1728515625 4564.921875 7439.73583984375 4564.6416015625 7439.06005859375 C 4564.36083984375 7438.3837890625 4564.513671875 7437.61181640625 4565.03076171875 7437.09375 L 4574.72021484375 7427.404296875 C 4575.06298828125 7427.0625 4575.515625 7426.8759765625 4575.99609375 7426.8759765625 Z" stroke="none" fill="#fff"/>
          </g>
        </g>
      </g>
    </g>
  </g>
</svg>
