<svg xmlns="http://www.w3.org/2000/svg" xmlns:xlink="http://www.w3.org/1999/xlink" width="240.858" height="81.213" viewBox="0 0 240.858 81.213">
  <defs>
    <clipPath id="clip-path">
      <rect width="240.858" height="81.213" fill="none"/>
    </clipPath>
    <filter id="Path_109" x="26.915" y="14.833" width="59.881" height="60.779" filterUnits="userSpaceOnUse">
      <feOffset input="SourceAlpha"/>
      <feGaussianBlur stdDeviation="1.5" result="blur"/>
      <feFlood flood-color="#fff"/>
      <feComposite operator="in" in2="blur"/>
      <feComposite in="SourceGraphic"/>
    </filter>
    <filter id="Path_110" x="80.222" y="8.051" width="41.984" height="47.632" filterUnits="userSpaceOnUse">
      <feOffset input="SourceAlpha"/>
      <feGaussianBlur stdDeviation="1.5" result="blur-2"/>
      <feFlood flood-color="#fff"/>
      <feComposite operator="in" in2="blur-2"/>
      <feComposite in="SourceGraphic"/>
    </filter>
    <filter id="Path_111" x="0" y="42.566" width="24.797" height="27.207" filterUnits="userSpaceOnUse">
      <feOffset input="SourceAlpha"/>
      <feGaussianBlur stdDeviation="1.5" result="blur-3"/>
      <feFlood flood-color="#fff"/>
      <feComposite operator="in" in2="blur-3"/>
      <feComposite in="SourceGraphic"/>
    </filter>
    <filter id="Path_112" x="215.734" y="2.36" width="24.797" height="27.208" filterUnits="userSpaceOnUse">
      <feOffset input="SourceAlpha"/>
      <feGaussianBlur stdDeviation="1.5" result="blur-4"/>
      <feFlood flood-color="#fff"/>
      <feComposite operator="in" in2="blur-4"/>
      <feComposite in="SourceGraphic"/>
    </filter>
    <filter id="Path_113" x="209.306" y="24.828" width="24.798" height="52.26" filterUnits="userSpaceOnUse">
      <feOffset input="SourceAlpha"/>
      <feGaussianBlur stdDeviation="1.5" result="blur-5"/>
      <feFlood flood-color="#fff"/>
      <feComposite operator="in" in2="blur-5"/>
      <feComposite in="SourceGraphic"/>
    </filter>
    <filter id="Path_114" x="166.377" y="1.565" width="52.899" height="60.604" filterUnits="userSpaceOnUse">
      <feOffset input="SourceAlpha"/>
      <feGaussianBlur stdDeviation="1.5" result="blur-6"/>
      <feFlood flood-color="#fff"/>
      <feComposite operator="in" in2="blur-6"/>
      <feComposite in="SourceGraphic"/>
    </filter>
    <filter id="Line_7" x="138.239" y="0" width="10.5" height="74.912" filterUnits="userSpaceOnUse">
      <feOffset input="SourceAlpha"/>
      <feGaussianBlur stdDeviation="1.5" result="blur-7"/>
      <feFlood flood-color="#fff"/>
      <feComposite operator="in" in2="blur-7"/>
      <feComposite in="SourceGraphic"/>
    </filter>
    <filter id="Line_8" x="155.463" y="10.263" width="10.5" height="47.114" filterUnits="userSpaceOnUse">
      <feOffset input="SourceAlpha"/>
      <feGaussianBlur stdDeviation="1.5" result="blur-8"/>
      <feFlood flood-color="#fff"/>
      <feComposite operator="in" in2="blur-8"/>
      <feComposite in="SourceGraphic"/>
    </filter>
    <filter id="Line_9" x="22.664" y="8.315" width="10.5" height="68.383" filterUnits="userSpaceOnUse">
      <feOffset input="SourceAlpha"/>
      <feGaussianBlur stdDeviation="1.5" result="blur-9"/>
      <feFlood flood-color="#fff"/>
      <feComposite operator="in" in2="blur-9"/>
      <feComposite in="SourceGraphic"/>
    </filter>
    <filter id="Line_10" x="127.24" y="13.684" width="10.5" height="23.205" filterUnits="userSpaceOnUse">
      <feOffset input="SourceAlpha"/>
      <feGaussianBlur stdDeviation="1.5" result="blur-10"/>
      <feFlood flood-color="#fff"/>
      <feComposite operator="in" in2="blur-10"/>
      <feComposite in="SourceGraphic"/>
    </filter>
    <filter id="Line_11" x="230.358" y="22.363" width="10.5" height="28.11" filterUnits="userSpaceOnUse">
      <feOffset input="SourceAlpha"/>
      <feGaussianBlur stdDeviation="1.5" result="blur-11"/>
      <feFlood flood-color="#fff"/>
      <feComposite operator="in" in2="blur-11"/>
      <feComposite in="SourceGraphic"/>
    </filter>
    <filter id="Line_12" x="143.666" y="22.751" width="10.5" height="22.547" filterUnits="userSpaceOnUse">
      <feOffset input="SourceAlpha"/>
      <feGaussianBlur stdDeviation="1.5" result="blur-12"/>
      <feFlood flood-color="#fff"/>
      <feComposite operator="in" in2="blur-12"/>
      <feComposite in="SourceGraphic"/>
    </filter>
    <filter id="Line_13" x="171.096" y="48.876" width="10.5" height="32.337" filterUnits="userSpaceOnUse">
      <feOffset input="SourceAlpha"/>
      <feGaussianBlur stdDeviation="1.5" result="blur-13"/>
      <feFlood flood-color="#fff"/>
      <feComposite operator="in" in2="blur-13"/>
      <feComposite in="SourceGraphic"/>
    </filter>
    <filter id="Line_14" x="14.906" y="4.53" width="10.5" height="28.807" filterUnits="userSpaceOnUse">
      <feOffset input="SourceAlpha"/>
      <feGaussianBlur stdDeviation="1.5" result="blur-14"/>
      <feFlood flood-color="#fff"/>
      <feComposite operator="in" in2="blur-14"/>
      <feComposite in="SourceGraphic"/>
    </filter>
    <filter id="Line_15" x="57.487" y="25.579" width="10.5" height="52.344" filterUnits="userSpaceOnUse">
      <feOffset input="SourceAlpha"/>
      <feGaussianBlur stdDeviation="1.5" result="blur-15"/>
      <feFlood flood-color="#fff"/>
      <feComposite operator="in" in2="blur-15"/>
      <feComposite in="SourceGraphic"/>
    </filter>
    <clipPath id="clip-path-2">
      <rect id="Rectangle_209" data-name="Rectangle 209" width="24.804" height="33.044" transform="translate(4187.501 6790.607)" fill="none"/>
    </clipPath>
    <filter id="Path_155" x="108.666" y="46.984" width="31.988" height="43.581" filterUnits="userSpaceOnUse">
      <feOffset input="SourceAlpha"/>
      <feGaussianBlur stdDeviation="1.5" result="blur-16"/>
      <feFlood flood-color="#fff"/>
      <feComposite operator="in" in2="blur-16"/>
      <feComposite in="SourceGraphic"/>
    </filter>
  </defs>
  <g id="Component_1_1" data-name="Component 1 – 1" transform="translate(0)" clip-path="url(#clip-path)">
    <g transform="matrix(1, 0, 0, 1, 0, 0)" filter="url(#Path_109)">
      <g id="Path_109-2" data-name="Path 109" transform="translate(-4074.92 -6745.38)" fill="none" stroke-miterlimit="10">
        <path d="M4132.293,6814.783l23.209-23.21a.73.73,0,0,0-.516-1.246h-10.964a.73.73,0,0,1-.73-.73v-22.649a.73.73,0,0,0-.73-.73H4120.99a.731.731,0,0,0-.73.73V6789.6a.729.729,0,0,1-.73.73h-10.963a.73.73,0,0,0-.516,1.246l23.209,23.21A.732.732,0,0,0,4132.293,6814.783Z" stroke="none"/>
        <path d="M 4131.7763671875 6814.99658203125 C 4131.96337890625 6814.99658203125 4132.150390625 6814.92578125 4132.29296875 6814.783203125 L 4155.501953125 6791.5732421875 C 4155.9619140625 6791.11279296875 4155.63623046875 6790.3271484375 4154.98583984375 6790.3271484375 L 4144.02197265625 6790.3271484375 C 4143.619140625 6790.3271484375 4143.2919921875 6790 4143.2919921875 6789.59716796875 L 4143.2919921875 6766.9482421875 C 4143.2919921875 6766.544921875 4142.9658203125 6766.2177734375 4142.56201171875 6766.2177734375 L 4120.990234375 6766.2177734375 C 4120.5869140625 6766.2177734375 4120.259765625 6766.544921875 4120.259765625 6766.9482421875 L 4120.259765625 6789.59716796875 C 4120.259765625 6790 4119.93408203125 6790.3271484375 4119.52978515625 6790.3271484375 L 4108.56689453125 6790.3271484375 C 4107.916015625 6790.3271484375 4107.5908203125 6791.11279296875 4108.05078125 6791.5732421875 L 4131.259765625 6814.783203125 C 4131.40234375 6814.92578125 4131.58935546875 6814.99658203125 4131.7763671875 6814.99658203125 M 4131.7763671875 6816.49658203125 C 4131.18115234375 6816.49658203125 4130.62109375 6816.26513671875 4130.2001953125 6815.8447265625 L 4106.990234375 6792.6337890625 C 4106.349609375 6791.99267578125 4106.16015625 6791.03857421875 4106.5068359375 6790.20263671875 C 4106.85302734375 6789.3671875 4107.66162109375 6788.8271484375 4108.56689453125 6788.8271484375 L 4118.759765625 6788.8271484375 L 4118.759765625 6766.9482421875 C 4118.759765625 6765.71826171875 4119.76025390625 6764.7177734375 4120.990234375 6764.7177734375 L 4142.56201171875 6764.7177734375 C 4143.79150390625 6764.7177734375 4144.7919921875 6765.71826171875 4144.7919921875 6766.9482421875 L 4144.7919921875 6788.8271484375 L 4154.98583984375 6788.8271484375 C 4155.890625 6788.8271484375 4156.69921875 6789.3671875 4157.0458984375 6790.203125 C 4157.392578125 6791.0390625 4157.203125 6791.99267578125 4156.56298828125 6792.63330078125 L 4133.353515625 6815.84375 C 4132.931640625 6816.26513671875 4132.37158203125 6816.49658203125 4131.7763671875 6816.49658203125 Z" stroke="none" fill="#fff"/>
      </g>
    </g>
    <g transform="matrix(1, 0, 0, 1, 0, 0)" filter="url(#Path_110)">
      <g id="Path_110-2" data-name="Path 110" transform="translate(-4074.92 -6745.38)" fill="none" stroke-miterlimit="10">
        <path d="M4176.458,6794.934l14.534-14.534a.457.457,0,0,0-.324-.78H4183.8a.457.457,0,0,1-.457-.457v-19.27a.458.458,0,0,0-.457-.457H4169.38a.458.458,0,0,0-.457.457v19.27a.457.457,0,0,1-.457.457H4161.6a.457.457,0,0,0-.324.78l14.534,14.534A.457.457,0,0,0,4176.458,6794.934Z" stroke="none"/>
        <path d="M 4176.134765625 6795.068359375 C 4176.25146484375 6795.068359375 4176.3681640625 6795.0234375 4176.4580078125 6794.93408203125 L 4190.9921875 6780.39990234375 C 4191.27978515625 6780.11181640625 4191.076171875 6779.6201171875 4190.66796875 6779.6201171875 L 4183.80322265625 6779.6201171875 C 4183.5498046875 6779.6201171875 4183.34619140625 6779.4150390625 4183.34619140625 6779.1630859375 L 4183.34619140625 6759.89306640625 C 4183.34619140625 6759.64111328125 4183.14111328125 6759.43603515625 4182.88916015625 6759.43603515625 L 4169.3798828125 6759.43603515625 C 4169.1279296875 6759.43603515625 4168.9228515625 6759.64111328125 4168.9228515625 6759.89306640625 L 4168.9228515625 6779.1630859375 C 4168.9228515625 6779.4150390625 4168.71923828125 6779.6201171875 4168.4658203125 6779.6201171875 L 4161.60107421875 6779.6201171875 C 4161.19287109375 6779.6201171875 4160.98876953125 6780.11181640625 4161.27685546875 6780.39990234375 L 4175.81103515625 6794.93408203125 C 4175.90087890625 6795.0234375 4176.017578125 6795.068359375 4176.134765625 6795.068359375 M 4176.134765625 6796.56787109375 C 4175.61279296875 6796.56787109375 4175.12158203125 6796.365234375 4174.751953125 6795.99609375 L 4160.21630859375 6781.46044921875 C 4159.65478515625 6780.89892578125 4159.48779296875 6780.06201171875 4159.7919921875 6779.32861328125 C 4160.095703125 6778.59423828125 4160.80615234375 6778.1201171875 4161.60107421875 6778.1201171875 L 4167.4228515625 6778.1201171875 L 4167.4228515625 6759.89306640625 C 4167.4228515625 6758.81396484375 4168.30078125 6757.93603515625 4169.3798828125 6757.93603515625 L 4182.88916015625 6757.93603515625 C 4183.96826171875 6757.93603515625 4184.84619140625 6758.81396484375 4184.84619140625 6759.89306640625 L 4184.84619140625 6778.1201171875 L 4190.66796875 6778.1201171875 C 4191.46240234375 6778.1201171875 4192.17236328125 6778.59423828125 4192.4765625 6779.32763671875 C 4192.78076171875 6780.06103515625 4192.61474609375 6780.8974609375 4192.0537109375 6781.45947265625 L 4177.5185546875 6795.99462890625 C 4177.1474609375 6796.365234375 4176.65625 6796.56787109375 4176.134765625 6796.56787109375 Z" stroke="none" fill="#fff"/>
      </g>
    </g>
    <g transform="matrix(1, 0, 0, 1, 0, 0)" filter="url(#Path_111)">
      <g id="Path_111-2" data-name="Path 111" transform="translate(-4074.92 -6745.38)" fill="none" stroke-miterlimit="10">
        <path d="M4087.457,6809.1l6.2-6.2a.2.2,0,0,0-.138-.333h-2.93a.2.2,0,0,1-.2-.195v-8.224a.2.2,0,0,0-.2-.195h-5.765a.2.2,0,0,0-.2.195v8.224a.2.2,0,0,1-.2.195h-2.93a.2.2,0,0,0-.138.333l6.2,6.2A.2.2,0,0,0,4087.457,6809.1Z" stroke="none"/>
        <path d="M 4087.319091796875 6809.15771484375 C 4087.369140625 6809.15771484375 4087.419189453125 6809.138671875 4087.45703125 6809.10107421875 L 4093.659912109375 6802.89794921875 C 4093.782958984375 6802.77490234375 4093.696044921875 6802.56494140625 4093.52197265625 6802.56494140625 L 4090.592041015625 6802.56494140625 C 4090.48388671875 6802.56494140625 4090.39697265625 6802.47705078125 4090.39697265625 6802.3701171875 L 4090.39697265625 6794.14599609375 C 4090.39697265625 6794.0380859375 4090.30908203125 6793.951171875 4090.201904296875 6793.951171875 L 4084.43701171875 6793.951171875 C 4084.3291015625 6793.951171875 4084.241943359375 6794.0380859375 4084.241943359375 6794.14599609375 L 4084.241943359375 6802.3701171875 C 4084.241943359375 6802.47705078125 4084.154052734375 6802.56494140625 4084.0458984375 6802.56494140625 L 4081.115966796875 6802.56494140625 C 4080.943115234375 6802.56494140625 4080.85595703125 6802.77490234375 4080.97802734375 6802.89794921875 L 4087.180908203125 6809.10107421875 C 4087.218994140625 6809.138671875 4087.26904296875 6809.15771484375 4087.319091796875 6809.15771484375 M 4087.319091796875 6810.65771484375 C 4086.867919921875 6810.65771484375 4086.443603515625 6810.48291015625 4086.123779296875 6810.1650390625 L 4079.917236328125 6803.95849609375 L 4079.915283203125 6803.95654296875 L 4079.9130859375 6803.95458984375 C 4079.4296875 6803.466796875 4079.287841796875 6802.7421875 4079.5517578125 6802.1083984375 C 4079.81591796875 6801.474609375 4080.4296875 6801.06494140625 4081.115966796875 6801.06494140625 L 4082.741943359375 6801.06494140625 L 4082.741943359375 6794.14599609375 C 4082.741943359375 6793.21142578125 4083.50244140625 6792.451171875 4084.43701171875 6792.451171875 L 4090.201904296875 6792.451171875 C 4091.136474609375 6792.451171875 4091.89697265625 6793.21142578125 4091.89697265625 6794.14599609375 L 4091.89697265625 6801.06494140625 L 4093.52197265625 6801.06494140625 C 4094.210205078125 6801.06494140625 4094.824951171875 6801.4755859375 4095.088134765625 6802.111328125 C 4095.3515625 6802.7470703125 4095.207275390625 6803.47216796875 4094.720458984375 6803.95849609375 L 4088.517822265625 6810.16162109375 C 4088.1962890625 6810.482421875 4087.77099609375 6810.65771484375 4087.319091796875 6810.65771484375 Z" stroke="none" fill="#fff"/>
      </g>
    </g>
    <g transform="matrix(1, 0, 0, 1, 0, 0)" filter="url(#Path_112)">
      <g id="Path_112-2" data-name="Path 112" transform="translate(-4074.92 -6745.38)" fill="none" stroke-miterlimit="10">
        <path d="M4303.191,6768.9l6.2-6.2a.2.2,0,0,0-.138-.333h-2.93a.2.2,0,0,1-.2-.195v-8.224a.2.2,0,0,0-.195-.2h-5.765a.2.2,0,0,0-.195.2v8.224a.2.2,0,0,1-.2.195h-2.93a.2.2,0,0,0-.138.333l6.2,6.2A.193.193,0,0,0,4303.191,6768.9Z" stroke="none"/>
        <path d="M 4303.0537109375 6768.953125 C 4303.103515625 6768.953125 4303.15283203125 6768.93359375 4303.19091796875 6768.89501953125 L 4309.39404296875 6762.69287109375 C 4309.51708984375 6762.56982421875 4309.43017578125 6762.35986328125 4309.255859375 6762.35986328125 L 4306.326171875 6762.35986328125 C 4306.2177734375 6762.35986328125 4306.130859375 6762.27197265625 4306.130859375 6762.1650390625 L 4306.130859375 6753.94091796875 C 4306.130859375 6753.8330078125 4306.0439453125 6753.7451171875 4305.93603515625 6753.7451171875 L 4300.1708984375 6753.7451171875 C 4300.06298828125 6753.7451171875 4299.97607421875 6753.8330078125 4299.97607421875 6753.94091796875 L 4299.97607421875 6762.1650390625 C 4299.97607421875 6762.27197265625 4299.88818359375 6762.35986328125 4299.78076171875 6762.35986328125 L 4296.85107421875 6762.35986328125 C 4296.6767578125 6762.35986328125 4296.58984375 6762.56982421875 4296.712890625 6762.69287109375 L 4302.9150390625 6768.89501953125 C 4302.95361328125 6768.93359375 4303.00390625 6768.953125 4303.0537109375 6768.953125 M 4303.0537109375 6770.45263671875 C 4302.60107421875 6770.45263671875 4302.1748046875 6770.2763671875 4301.8544921875 6769.95556640625 L 4295.65234375 6763.75341796875 C 4295.16552734375 6763.26708984375 4295.021484375 6762.5419921875 4295.28466796875 6761.90625 C 4295.5478515625 6761.2705078125 4296.16259765625 6760.85986328125 4296.85107421875 6760.85986328125 L 4298.47607421875 6760.85986328125 L 4298.47607421875 6753.94091796875 C 4298.47607421875 6753.005859375 4299.236328125 6752.2451171875 4300.1708984375 6752.2451171875 L 4305.93603515625 6752.2451171875 C 4306.87060546875 6752.2451171875 4307.630859375 6753.005859375 4307.630859375 6753.94091796875 L 4307.630859375 6760.85986328125 L 4309.255859375 6760.85986328125 C 4309.9443359375 6760.85986328125 4310.55908203125 6761.2705078125 4310.822265625 6761.90625 C 4311.08544921875 6762.5419921875 4310.94140625 6763.26708984375 4310.45458984375 6763.75341796875 L 4304.25390625 6769.95361328125 C 4303.93798828125 6770.27099609375 4303.5009765625 6770.45263671875 4303.0537109375 6770.45263671875 Z" stroke="none" fill="#fff"/>
      </g>
    </g>
    <g transform="matrix(1, 0, 0, 1, 0, 0)" filter="url(#Path_113)">
      <g id="Path_113-2" data-name="Path 113" transform="translate(-4074.92 -6745.38)" fill="none" stroke-miterlimit="10">
        <path d="M4296.763,6816.416l6.2-6.2a.2.2,0,0,0-.138-.333h-2.93a.194.194,0,0,1-.195-.195v-33.277a.2.2,0,0,0-.2-.2h-5.765a.2.2,0,0,0-.2.2v33.277a.194.194,0,0,1-.195.195h-2.93a.2.2,0,0,0-.138.333l6.2,6.2A.2.2,0,0,0,4296.763,6816.416Z" stroke="none"/>
        <path d="M 4296.625 6816.47314453125 C 4296.6748046875 6816.47314453125 4296.72509765625 6816.4541015625 4296.76318359375 6816.416015625 L 4302.9658203125 6810.212890625 C 4303.0888671875 6810.0908203125 4303.001953125 6809.8798828125 4302.828125 6809.8798828125 L 4299.89794921875 6809.8798828125 C 4299.7900390625 6809.8798828125 4299.703125 6809.79296875 4299.703125 6809.68505859375 L 4299.703125 6776.408203125 C 4299.703125 6776.30078125 4299.615234375 6776.212890625 4299.5078125 6776.212890625 L 4293.7431640625 6776.212890625 C 4293.634765625 6776.212890625 4293.546875 6776.30078125 4293.546875 6776.408203125 L 4293.546875 6809.68505859375 C 4293.546875 6809.79296875 4293.4599609375 6809.8798828125 4293.35205078125 6809.8798828125 L 4290.421875 6809.8798828125 C 4290.2490234375 6809.8798828125 4290.1611328125 6810.0908203125 4290.2841796875 6810.212890625 L 4296.48681640625 6816.416015625 C 4296.52490234375 6816.4541015625 4296.5751953125 6816.47314453125 4296.625 6816.47314453125 M 4296.625 6817.97314453125 C 4296.171875 6817.97314453125 4295.74609375 6817.796875 4295.42626953125 6817.4765625 L 4289.2236328125 6811.2734375 C 4288.73779296875 6810.78857421875 4288.59326171875 6810.0654296875 4288.85498046875 6809.4296875 C 4289.11767578125 6808.7919921875 4289.73291015625 6808.3798828125 4290.421875 6808.3798828125 L 4292.046875 6808.3798828125 L 4292.046875 6776.408203125 C 4292.046875 6775.4736328125 4292.8076171875 6774.712890625 4293.7431640625 6774.712890625 L 4299.5078125 6774.712890625 C 4300.4423828125 6774.712890625 4301.203125 6775.4736328125 4301.203125 6776.408203125 L 4301.203125 6808.3798828125 L 4302.828125 6808.3798828125 C 4303.517578125 6808.3798828125 4304.1328125 6808.7919921875 4304.3955078125 6809.4296875 C 4304.6572265625 6810.06494140625 4304.51220703125 6810.7880859375 4304.0263671875 6811.2734375 L 4304.0263671875 6811.2734375 L 4297.82373046875 6817.4765625 C 4297.50390625 6817.796875 4297.078125 6817.97314453125 4296.625 6817.97314453125 Z" stroke="none" fill="#fff"/>
      </g>
    </g>
    <g transform="matrix(1, 0, 0, 1, 0, 0)" filter="url(#Path_114)">
      <g id="Path_114-2" data-name="Path 114" transform="translate(-4074.92 -6745.38)" fill="none" stroke-miterlimit="10">
        <path d="M4268.188,6801.372l19.825-19.825a.624.624,0,0,0-.441-1.065h-9.365a.623.623,0,0,1-.623-.623v-26.285a.623.623,0,0,0-.624-.624h-18.426a.623.623,0,0,0-.623.624v26.285a.624.624,0,0,1-.624.623h-9.365a.624.624,0,0,0-.441,1.065l19.825,19.825A.624.624,0,0,0,4268.188,6801.372Z" stroke="none"/>
        <path d="M 4267.7470703125 6801.5546875 C 4267.90625 6801.5546875 4268.06591796875 6801.49365234375 4268.18798828125 6801.3720703125 L 4288.01318359375 6781.546875 C 4288.40576171875 6781.15380859375 4288.1279296875 6780.48193359375 4287.57177734375 6780.48193359375 L 4278.20703125 6780.48193359375 C 4277.86279296875 6780.48193359375 4277.583984375 6780.203125 4277.583984375 6779.85888671875 L 4277.583984375 6753.57421875 C 4277.583984375 6753.22900390625 4277.30517578125 6752.9501953125 4276.9599609375 6752.9501953125 L 4258.5341796875 6752.9501953125 C 4258.18994140625 6752.9501953125 4257.9111328125 6753.22900390625 4257.9111328125 6753.57421875 L 4257.9111328125 6779.85888671875 C 4257.9111328125 6780.203125 4257.630859375 6780.48193359375 4257.287109375 6780.48193359375 L 4247.921875 6780.48193359375 C 4247.3671875 6780.48193359375 4247.087890625 6781.15380859375 4247.48095703125 6781.546875 L 4267.30615234375 6801.3720703125 C 4267.427734375 6801.49365234375 4267.58740234375 6801.5546875 4267.7470703125 6801.5546875 M 4267.7470703125 6803.0546875 C 4267.1806640625 6803.0546875 4266.6474609375 6802.833984375 4266.24658203125 6802.43359375 L 4246.42041015625 6782.607421875 C 4245.81103515625 6781.998046875 4245.63037109375 6781.08984375 4245.9599609375 6780.29345703125 C 4246.2900390625 6779.49658203125 4247.06005859375 6778.98193359375 4247.921875 6778.98193359375 L 4256.4111328125 6778.98193359375 L 4256.4111328125 6753.57421875 C 4256.4111328125 6752.40283203125 4257.36376953125 6751.4501953125 4258.5341796875 6751.4501953125 L 4276.9599609375 6751.4501953125 C 4278.13134765625 6751.4501953125 4279.083984375 6752.40283203125 4279.083984375 6753.57421875 L 4279.083984375 6778.98193359375 L 4287.57177734375 6778.98193359375 C 4288.43359375 6778.98193359375 4289.20361328125 6779.49609375 4289.53369140625 6780.29248046875 C 4289.86376953125 6781.08837890625 4289.68359375 6781.9970703125 4289.07470703125 6782.60693359375 L 4269.24853515625 6802.4326171875 C 4268.84521484375 6802.83447265625 4268.31298828125 6803.0546875 4267.7470703125 6803.0546875 Z" stroke="none" fill="#fff"/>
      </g>
    </g>
    <g transform="matrix(1, 0, 0, 1, 0, 0)" filter="url(#Line_7)">
      <line id="Line_7-2" data-name="Line 7" y1="64.412" transform="translate(143.49 5.25)" fill="none" stroke="#fff" stroke-linecap="round" stroke-linejoin="round" stroke-width="1.5"/>
    </g>
    <g transform="matrix(1, 0, 0, 1, 0, 0)" filter="url(#Line_8)">
      <line id="Line_8-2" data-name="Line 8" y1="36.614" transform="translate(160.71 15.51)" fill="none" stroke="#fff" stroke-linecap="round" stroke-linejoin="round" stroke-width="1.5"/>
    </g>
    <g transform="matrix(1, 0, 0, 1, 0, 0)" filter="url(#Line_9)">
      <line id="Line_9-2" data-name="Line 9" y1="57.883" transform="translate(27.91 13.56)" fill="none" stroke="#fff" stroke-linecap="round" stroke-linejoin="round" stroke-width="1.5"/>
    </g>
    <g transform="matrix(1, 0, 0, 1, 0, 0)" filter="url(#Line_10)">
      <line id="Line_10-2" data-name="Line 10" y1="12.705" transform="translate(132.49 18.93)" fill="none" stroke="#fff" stroke-linecap="round" stroke-linejoin="round" stroke-width="1.5"/>
    </g>
    <g transform="matrix(1, 0, 0, 1, 0, 0)" filter="url(#Line_11)">
      <line id="Line_11-2" data-name="Line 11" y1="17.61" transform="translate(235.61 27.61)" fill="none" stroke="#fff" stroke-linecap="round" stroke-linejoin="round" stroke-width="1.5"/>
    </g>
    <g transform="matrix(1, 0, 0, 1, 0, 0)" filter="url(#Line_12)">
      <line id="Line_12-2" data-name="Line 12" y1="12.047" transform="translate(148.92 28)" fill="none" stroke="#fff" stroke-linecap="round" stroke-linejoin="round" stroke-width="1.5"/>
    </g>
    <g transform="matrix(1, 0, 0, 1, 0, 0)" filter="url(#Line_13)">
      <line id="Line_13-2" data-name="Line 13" y1="21.837" transform="translate(176.35 54.13)" fill="none" stroke="#fff" stroke-linecap="round" stroke-linejoin="round" stroke-width="1.5"/>
    </g>
    <g transform="matrix(1, 0, 0, 1, 0, 0)" filter="url(#Line_14)">
      <line id="Line_14-2" data-name="Line 14" y1="18.307" transform="translate(20.16 9.78)" fill="none" stroke="#fff" stroke-linecap="round" stroke-linejoin="round" stroke-width="1.5"/>
    </g>
    <g transform="matrix(1, 0, 0, 1, 0, 0)" filter="url(#Line_15)">
      <line id="Line_15-2" data-name="Line 15" y1="41.844" transform="translate(62.74 30.83)" fill="none" stroke="#fff" stroke-linecap="round" stroke-linejoin="round" stroke-width="1.5"/>
    </g>
    <g id="Group_142" data-name="Group 142" transform="translate(-4074.921 -6745.385)">
      <g id="Group_141" data-name="Group 141" clip-path="url(#clip-path-2)">
        <g transform="matrix(1, 0, 0, 1, 4074.92, 6745.38)" filter="url(#Path_155)">
          <g id="Path_155-2" data-name="Path 155" transform="translate(-4074.92 -6745.38)" fill="none" stroke-miterlimit="10">
            <path d="M4199.8,6829.861l9.688-9.689a.3.3,0,0,0-.215-.52h-4.577a.3.3,0,0,1-.3-.3v-20.674a.3.3,0,0,0-.305-.3h-9a.3.3,0,0,0-.305.3v20.674a.3.3,0,0,1-.3.3h-4.576a.3.3,0,0,0-.216.52l9.689,9.689A.3.3,0,0,0,4199.8,6829.861Z" stroke="none"/>
            <path d="M 4199.58154296875 6829.9501953125 C 4199.65966796875 6829.9501953125 4199.73779296875 6829.92041015625 4199.796875 6829.86083984375 L 4209.48486328125 6820.171875 C 4209.6767578125 6819.97998046875 4209.541015625 6819.65185546875 4209.27001953125 6819.65185546875 L 4204.69287109375 6819.65185546875 C 4204.52490234375 6819.65185546875 4204.38916015625 6819.51611328125 4204.38916015625 6819.34716796875 L 4204.38916015625 6798.6728515625 C 4204.38916015625 6798.5048828125 4204.251953125 6798.369140625 4204.083984375 6798.369140625 L 4195.0791015625 6798.369140625 C 4194.9111328125 6798.369140625 4194.77392578125 6798.5048828125 4194.77392578125 6798.6728515625 L 4194.77392578125 6819.34716796875 C 4194.77392578125 6819.51611328125 4194.63818359375 6819.65185546875 4194.46923828125 6819.65185546875 L 4189.89306640625 6819.65185546875 C 4189.62109375 6819.65185546875 4189.48486328125 6819.97998046875 4189.6767578125 6820.171875 L 4199.3662109375 6829.86083984375 C 4199.42578125 6829.92041015625 4199.50341796875 6829.9501953125 4199.58154296875 6829.9501953125 M 4199.58154296875 6831.4501953125 C 4199.09814453125 6831.4501953125 4198.64453125 6831.26171875 4198.30322265625 6830.91943359375 L 4188.6162109375 6821.232421875 C 4188.09814453125 6820.71484375 4187.94482421875 6819.94287109375 4188.22509765625 6819.26611328125 C 4188.50537109375 6818.58935546875 4189.16015625 6818.15185546875 4189.89306640625 6818.15185546875 L 4193.27392578125 6818.15185546875 L 4193.27392578125 6798.6728515625 C 4193.27392578125 6797.67822265625 4194.08349609375 6796.869140625 4195.0791015625 6796.869140625 L 4204.083984375 6796.869140625 C 4205.07958984375 6796.869140625 4205.88916015625 6797.67822265625 4205.88916015625 6798.6728515625 L 4205.88916015625 6818.15185546875 L 4209.27001953125 6818.15185546875 C 4210.00244140625 6818.15185546875 4210.65673828125 6818.5888671875 4210.9365234375 6819.265625 C 4211.21728515625 6819.9423828125 4211.0634765625 6820.71435546875 4210.54541015625 6821.232421875 L 4200.857421875 6830.92138671875 C 4200.51904296875 6831.26171875 4200.06494140625 6831.4501953125 4199.58154296875 6831.4501953125 Z" stroke="none" fill="#fff"/>
          </g>
        </g>
      </g>
    </g>
  </g>
</svg>
