<svg xmlns="http://www.w3.org/2000/svg" width="34.42" height="34.972" viewBox="0 0 34.42 34.972">
  <g id="Group_868" data-name="Group 868" transform="translate(-2915.457 -644.273)">
    <g id="Group_867" data-name="Group 867">
      <path id="Path_1279" data-name="Path 1279" d="M2923.221,648.554a16.451,16.451,0,1,1-4.568,4.844" fill="none" stroke="#fff" stroke-linecap="round" stroke-linejoin="round" stroke-width="1.5"/>
    </g>
    <path id="Path_1280" data-name="Path 1280" d="M2926.817,649.2l-3.6-.644.632-3.531" fill="none" stroke="#fff" stroke-linecap="round" stroke-linejoin="round" stroke-width="1.5"/>
    <path id="Path_1281" data-name="Path 1281" d="M2941.663,661.843a9,9,0,0,1-13.64,7.706c-.377-.227-1.771,1.29-4,.966,1.467-.932,2.271-2.306,1.977-2.63a8.965,8.965,0,0,1-2.331-6.042,9.116,9.116,0,0,1,4.548-7.821,8.677,8.677,0,0,1,4.448-1.175A9,9,0,0,1,2941.663,661.843Z" fill="none" stroke="#fff" stroke-linecap="round" stroke-linejoin="round" stroke-width="1.5"/>
    <circle id="Ellipse_204" data-name="Ellipse 204" cx="1.182" cy="1.182" r="1.182" transform="translate(2928.023 660.625)" fill="#fff"/>
    <circle id="Ellipse_205" data-name="Ellipse 205" cx="1.182" cy="1.182" r="1.182" transform="translate(2931.485 660.625)" fill="#fff"/>
    <circle id="Ellipse_206" data-name="Ellipse 206" cx="1.182" cy="1.182" r="1.182" transform="translate(2934.947 660.625)" fill="#fff"/>
  </g>
</svg>
